<svg id="visual" viewBox="0 0 300 100" width="300" height="100" xmlns="http://www.w3.org/2000/svg" xmlns:xlink="http://www.w3.org/1999/xlink" version="1.1"><path d="M0 39L3.5 39.7C7 40.3 14 41.7 21.2 40.3C28.3 39 35.7 35 42.8 33.8C50 32.7 57 34.3 64.2 36.8C71.3 39.3 78.7 42.7 85.8 42.8C93 43 100 40 107.2 38.5C114.3 37 121.7 37 128.8 38C136 39 143 41 150 40.8C157 40.7 164 38.3 171.2 37.2C178.3 36 185.7 36 192.8 36.7C200 37.3 207 38.7 214.2 40.7C221.3 42.7 228.7 45.3 235.8 43.8C243 42.3 250 36.7 257.2 36.7C264.3 36.7 271.7 42.3 278.8 44C286 45.7 293 43.3 296.5 42.2L300 41L300 101L296.5 101C293 101 286 101 278.8 101C271.7 101 264.3 101 257.2 101C250 101 243 101 235.8 101C228.7 101 221.3 101 214.2 101C207 101 200 101 192.8 101C185.7 101 178.3 101 171.2 101C164 101 157 101 150 101C143 101 136 101 128.8 101C121.7 101 114.3 101 107.2 101C100 101 93 101 85.8 101C78.7 101 71.3 101 64.2 101C57 101 50 101 42.8 101C35.7 101 28.3 101 21.2 101C14 101 7 101 3.5 101L0 101Z" fill="#fc6464"></path><path d="M0 50L3.5 50.3C7 50.7 14 51.3 21.2 52.2C28.3 53 35.7 54 42.8 55.7C50 57.3 57 59.7 64.2 60.3C71.3 61 78.7 60 85.8 60.3C93 60.7 100 62.3 107.2 62.8C114.3 63.3 121.7 62.7 128.8 60.3C136 58 143 54 150 53.3C157 52.7 164 55.3 171.2 57.7C178.3 60 185.7 62 192.8 60.7C200 59.3 207 54.7 214.2 52.8C221.3 51 228.7 52 235.8 54.8C243 57.7 250 62.3 257.2 62C264.3 61.7 271.7 56.3 278.8 55.3C286 54.3 293 57.7 296.5 59.3L300 61L300 101L296.5 101C293 101 286 101 278.8 101C271.7 101 264.3 101 257.2 101C250 101 243 101 235.8 101C228.7 101 221.3 101 214.2 101C207 101 200 101 192.8 101C185.7 101 178.3 101 171.2 101C164 101 157 101 150 101C143 101 136 101 128.8 101C121.7 101 114.3 101 107.2 101C100 101 93 101 85.8 101C78.7 101 71.3 101 64.2 101C57 101 50 101 42.8 101C35.7 101 28.3 101 21.2 101C14 101 7 101 3.5 101L0 101Z" fill="#9a5993"></path><path d="M0 70L3.5 70.7C7 71.3 14 72.7 21.2 73.3C28.3 74 35.7 74 42.8 73.8C50 73.7 57 73.3 64.2 74.5C71.3 75.7 78.7 78.3 85.8 79.7C93 81 100 81 107.2 82C114.3 83 121.7 85 128.8 85.2C136 85.3 143 83.7 150 81C157 78.3 164 74.7 171.2 73.3C178.3 72 185.7 73 192.8 73.8C200 74.7 207 75.3 214.2 77.8C221.3 80.3 228.7 84.7 235.8 86.3C243 88 250 87 257.2 83.8C264.3 80.7 271.7 75.3 278.8 73C286 70.7 293 71.3 296.5 71.7L300 72L300 101L296.5 101C293 101 286 101 278.8 101C271.7 101 264.3 101 257.2 101C250 101 243 101 235.8 101C228.7 101 221.3 101 214.2 101C207 101 200 101 192.8 101C185.7 101 178.3 101 171.2 101C164 101 157 101 150 101C143 101 136 101 128.8 101C121.7 101 114.3 101 107.2 101C100 101 93 101 85.8 101C78.7 101 71.3 101 64.2 101C57 101 50 101 42.8 101C35.7 101 28.3 101 21.2 101C14 101 7 101 3.5 101L0 101Z" fill="#3b4c66"></path></svg>