<svg id="visual" viewBox="0 0 300 100" width="300" height="100" xmlns="http://www.w3.org/2000/svg" xmlns:xlink="http://www.w3.org/1999/xlink" version="1.1"><path d="M0 61L7.2 63C14.3 65 28.7 69 43 65.7C57.3 62.3 71.7 51.7 86 51.5C100.3 51.3 114.7 61.7 128.8 62.8C143 64 157 56 171.2 55.5C185.3 55 199.7 62 214 63.3C228.3 64.7 242.7 60.3 257 60.5C271.3 60.7 285.7 65.3 292.8 67.7L300 70L300 101L292.8 101C285.7 101 271.3 101 257 101C242.7 101 228.3 101 214 101C199.7 101 185.3 101 171.2 101C157 101 143 101 128.8 101C114.7 101 100.3 101 86 101C71.7 101 57.3 101 43 101C28.7 101 14.3 101 7.2 101L0 101Z" fill="#3b4c66" stroke-linecap="round" stroke-linejoin="miter"></path></svg>